<?xml version="1.0" encoding="UTF-8"?>
<svg id="Layer_1" xmlns="http://www.w3.org/2000/svg" version="1.1" xmlns:xlink="http://www.w3.org/1999/xlink" viewBox="0 0 983.8 301.11">
  <!-- Generator: Adobe Illustrator 29.0.1, SVG Export Plug-In . SVG Version: 2.1.0 Build 192)  -->
  <defs>
    <style>
      .st0 {
        fill: #006abf;
        stroke: #006abf;
        stroke-miterlimit: 10;
        stroke-width: .75px;
      }

      .st1 {
        fill: url(#linear-gradient);
      }
    </style>
    <linearGradient id="linear-gradient" x1="627.84" y1="224.77" x2="627.84" y2="85.78" gradientUnits="userSpaceOnUse">
      <stop offset="0" stop-color="#4b00ff" stop-opacity="1"/>
      <stop offset="0" stop-color="#4704fc" stop-opacity="1"/>
      <stop offset="0" stop-color="#3d12f3" stop-opacity="1"/>
      <stop offset="0" stop-color="#2d29e5" stop-opacity="1"/>
      <stop offset="0" stop-color="#164ad2" stop-opacity="1"/>
      <stop offset="0" stop-color="#006abf"/>
      <stop offset=".11" stop-color="#0067ba" stop-opacity=".97"/>
      <stop offset=".25" stop-color="#005fac" stop-opacity=".9"/>
      <stop offset=".39" stop-color="#005294" stop-opacity=".78"/>
      <stop offset=".53" stop-color="#004074" stop-opacity=".61"/>
      <stop offset=".69" stop-color="#00294a" stop-opacity=".39"/>
      <stop offset=".84" stop-color="#000d18" stop-opacity=".13"/>
      <stop offset=".91" stop-color="#000" stop-opacity="0"/>
    </linearGradient>
  </defs>
  <g>
    <g>
      <path d="M373.15,106.42h-35.37v-11.79h83.57v11.79h-35.37v86.96h-12.82v-86.96Z"/>
      <path d="M431.23,159.33c.39,3.54,1.33,6.76,2.8,9.65,1.47,2.9,3.36,5.41,5.67,7.52,2.31,2.11,5.01,3.74,8.11,4.86,3.09,1.13,6.46,1.7,10.1,1.7,4.72,0,8.92-.93,12.6-2.8,3.68-1.87,6.36-4.52,8.03-7.96h14c-2.36,6.98-6.68,12.46-12.97,16.43-6.29,3.98-13.76,5.97-22.4,5.97-5.5,0-10.61-.98-15.33-2.95-4.72-1.96-8.82-4.69-12.31-8.18-3.49-3.49-6.22-7.61-8.18-12.38-1.97-4.76-2.95-9.95-2.95-15.55s.98-10.78,2.95-15.55c1.96-4.76,4.67-8.92,8.11-12.45,3.44-3.54,7.52-6.29,12.23-8.25,4.72-1.96,9.88-2.95,15.48-2.95,5.31,0,10.19.79,14.67,2.36,4.47,1.57,8.35,3.78,11.64,6.63,3.29,2.85,5.94,6.26,7.96,10.24,2.01,3.98,3.22,8.43,3.61,13.34.2,1.57.29,3.05.29,4.42,0,.29-.03.93-.07,1.92-.05.98-.12,2.31-.22,3.98h-63.82ZM481.93,149.02c-.59-6.49-3.1-11.59-7.52-15.33-4.42-3.73-10.17-5.6-17.24-5.6-3.24,0-6.29.49-9.14,1.47-2.85.98-5.38,2.41-7.59,4.27-2.21,1.87-4.08,4.08-5.6,6.63-1.52,2.56-2.58,5.41-3.17,8.55h50.26Z"/>
      <path d="M534.84,165.38l-20.19,28h-13.85l27.12-37.58-27.27-37.88h13.85l20.19,28.3,20.34-28.3h14l-27.42,37.88,26.97,37.58h-13.71l-20.05-28Z"/>
      <path d="M578.91,138.55c0-6.78,2.53-12.16,7.59-16.14,5.06-3.98,11.96-5.97,20.71-5.97s15.52,1.97,20.63,5.9c5.11,3.93,7.81,9.34,8.11,16.21h-12.53c-.2-3.44-1.75-6.17-4.64-8.18-2.9-2.01-6.85-3.02-11.87-3.02s-8.75.96-11.5,2.87c-2.75,1.92-4.13,4.55-4.13,7.89,0,2.06.46,3.76,1.4,5.08.93,1.33,2.21,2.46,3.83,3.39,1.62.94,3.51,1.7,5.67,2.28,2.16.59,4.42,1.13,6.78,1.62,3.24.69,6.58,1.43,10.02,2.21,3.44.79,6.53,1.94,9.29,3.46,2.75,1.52,5.01,3.56,6.78,6.12,1.77,2.56,2.65,5.9,2.65,10.02,0,6.98-2.58,12.43-7.74,16.36-5.16,3.93-12.36,5.9-21.59,5.9-4.72,0-8.99-.54-12.82-1.62s-7.1-2.58-9.8-4.5c-2.7-1.92-4.79-4.25-6.26-7-1.47-2.75-2.21-5.8-2.21-9.14h12.38c.69,3.74,2.68,6.56,5.97,8.48,3.29,1.92,7.74,2.87,13.34,2.87,10.91,0,16.36-3.39,16.36-10.17,0-2.16-.54-3.93-1.62-5.31-1.08-1.38-2.51-2.51-4.27-3.39-1.77-.88-3.81-1.6-6.12-2.14-2.31-.54-4.74-1.05-7.3-1.55-3.24-.59-6.46-1.3-9.65-2.14-3.19-.83-6.09-2.06-8.7-3.68-2.6-1.62-4.72-3.76-6.34-6.41s-2.43-6.09-2.43-10.32Z"/>
      <path d="M697.41,194.71c-6.49,0-12.14-1.13-16.95-3.39-4.82-2.26-8.65-5.6-11.5-10.02v43.48h-12.09v-106.86h12.09v12.09c5.9-9.04,15.38-13.56,28.45-13.56,5.5,0,10.61.98,15.33,2.95,4.72,1.97,8.79,4.69,12.23,8.18,3.44,3.49,6.12,7.64,8.03,12.45,1.92,4.82,2.87,10.02,2.87,15.62s-.96,10.79-2.87,15.55c-1.92,4.77-4.59,8.89-8.03,12.38-3.44,3.49-7.52,6.22-12.23,8.18-4.72,1.96-9.83,2.95-15.33,2.95ZM696.23,128.09c-4.03,0-7.72.66-11.05,1.99-3.34,1.33-6.22,3.22-8.62,5.67-2.41,2.46-4.27,5.38-5.6,8.77-1.33,3.39-1.99,7.1-1.99,11.13s.66,7.71,1.99,11.05c1.33,3.34,3.19,6.24,5.6,8.7,2.41,2.46,5.28,4.35,8.62,5.67,3.34,1.33,7.02,1.99,11.05,1.99s7.54-.69,10.83-2.06c3.29-1.38,6.14-3.29,8.55-5.75,2.41-2.46,4.3-5.35,5.67-8.7,1.38-3.34,2.06-6.98,2.06-10.91s-.69-7.59-2.06-10.98c-1.38-3.39-3.27-6.31-5.67-8.77-2.41-2.45-5.26-4.37-8.55-5.75-3.29-1.38-6.9-2.06-10.83-2.06Z"/>
      <path d="M750.91,94.48c0-2.45.83-4.52,2.51-6.19,1.67-1.67,3.73-2.51,6.19-2.51s4.52.84,6.19,2.51c1.67,1.67,2.5,3.74,2.5,6.19s-.84,4.52-2.5,6.19c-1.67,1.67-3.74,2.51-6.19,2.51s-4.52-.83-6.19-2.51c-1.67-1.67-2.51-3.73-2.51-6.19ZM753.57,117.92h12.09v75.46h-12.09v-75.46Z"/>
      <path d="M789.24,117.92h12.09v16.66c3.04-6.09,7.17-10.64,12.38-13.63,5.21-3,10.86-4.5,16.95-4.5v12.53c-3.24,0-6.61.61-10.1,1.84-3.49,1.23-6.66,3.05-9.51,5.45-2.85,2.41-5.18,5.38-7,8.92-1.82,3.54-2.73,7.62-2.73,12.23v35.96h-12.09v-75.46Z"/>
      <path d="M853.79,159.33c.39,3.54,1.33,6.76,2.8,9.65,1.47,2.9,3.36,5.41,5.67,7.52,2.31,2.11,5.01,3.74,8.11,4.86,3.1,1.13,6.46,1.7,10.1,1.7,4.72,0,8.92-.93,12.6-2.8,3.68-1.87,6.36-4.52,8.03-7.96h14c-2.36,6.98-6.68,12.46-12.97,16.43-6.29,3.98-13.76,5.97-22.4,5.97-5.5,0-10.61-.98-15.33-2.95-4.72-1.96-8.82-4.69-12.31-8.18-3.49-3.49-6.22-7.61-8.18-12.38-1.97-4.76-2.95-9.95-2.95-15.55s.98-10.78,2.95-15.55c1.96-4.76,4.67-8.92,8.11-12.45,3.44-3.54,7.52-6.29,12.23-8.25,4.72-1.96,9.88-2.95,15.48-2.95,5.31,0,10.19.79,14.67,2.36,4.47,1.57,8.35,3.78,11.64,6.63,3.29,2.85,5.94,6.26,7.96,10.24,2.01,3.98,3.22,8.43,3.61,13.34.2,1.57.29,3.05.29,4.42,0,.29-.03.93-.07,1.92-.05.98-.12,2.31-.22,3.98h-63.82ZM904.49,149.02c-.59-6.49-3.1-11.59-7.52-15.33-4.42-3.73-10.17-5.6-17.25-5.6-3.24,0-6.29.49-9.14,1.47-2.85.98-5.38,2.41-7.59,4.27-2.21,1.87-4.08,4.08-5.6,6.63-1.52,2.56-2.58,5.41-3.17,8.55h50.26Z"/>
    </g>
    <g>
      <path class="st1" d="M373.15,106.42h-35.37v-11.79h83.57v11.79h-35.37v86.96h-12.82v-86.96Z"/>
      <path class="st1" d="M431.23,159.33c.39,3.54,1.33,6.76,2.8,9.65,1.47,2.9,3.36,5.41,5.67,7.52,2.31,2.11,5.01,3.74,8.11,4.86,3.09,1.13,6.46,1.7,10.1,1.7,4.72,0,8.92-.93,12.6-2.8,3.68-1.87,6.36-4.52,8.03-7.96h14c-2.36,6.98-6.68,12.46-12.97,16.43-6.29,3.98-13.76,5.97-22.4,5.97-5.5,0-10.61-.98-15.33-2.95-4.72-1.96-8.82-4.69-12.31-8.18-3.49-3.49-6.22-7.61-8.18-12.38-1.97-4.76-2.95-9.95-2.95-15.55s.98-10.78,2.95-15.55c1.96-4.76,4.67-8.92,8.11-12.45,3.44-3.54,7.52-6.29,12.23-8.25,4.72-1.96,9.88-2.95,15.48-2.95,5.31,0,10.19.79,14.67,2.36,4.47,1.57,8.35,3.78,11.64,6.63,3.29,2.85,5.94,6.26,7.96,10.24,2.01,3.98,3.22,8.43,3.61,13.34.2,1.57.29,3.05.29,4.42,0,.29-.03.93-.07,1.92-.05.98-.12,2.31-.22,3.98h-63.82ZM481.93,149.02c-.59-6.49-3.1-11.59-7.52-15.33-4.42-3.73-10.17-5.6-17.24-5.6-3.24,0-6.29.49-9.14,1.47-2.85.98-5.38,2.41-7.59,4.27-2.21,1.87-4.08,4.08-5.6,6.63-1.52,2.56-2.58,5.41-3.17,8.55h50.26Z"/>
      <path class="st1" d="M534.84,165.38l-20.19,28h-13.85l27.12-37.58-27.27-37.88h13.85l20.19,28.3,20.34-28.3h14l-27.42,37.88,26.97,37.58h-13.71l-20.05-28Z"/>
      <path class="st1" d="M578.91,138.55c0-6.78,2.53-12.16,7.59-16.14,5.06-3.98,11.96-5.97,20.71-5.97s15.52,1.97,20.63,5.9c5.11,3.93,7.81,9.34,8.11,16.21h-12.53c-.2-3.44-1.75-6.17-4.64-8.18-2.9-2.01-6.85-3.02-11.87-3.02s-8.75.96-11.5,2.87c-2.75,1.92-4.13,4.55-4.13,7.89,0,2.06.46,3.76,1.4,5.08.93,1.33,2.21,2.46,3.83,3.39,1.62.94,3.51,1.7,5.67,2.28,2.16.59,4.42,1.13,6.78,1.62,3.24.69,6.58,1.43,10.02,2.21,3.44.79,6.53,1.94,9.29,3.46,2.75,1.52,5.01,3.56,6.78,6.12,1.77,2.56,2.65,5.9,2.65,10.02,0,6.98-2.58,12.43-7.74,16.36-5.16,3.93-12.36,5.9-21.59,5.9-4.72,0-8.99-.54-12.82-1.62s-7.1-2.58-9.8-4.5c-2.7-1.92-4.79-4.25-6.26-7-1.47-2.75-2.21-5.8-2.21-9.14h12.38c.69,3.74,2.68,6.56,5.97,8.48,3.29,1.92,7.74,2.87,13.34,2.87,10.91,0,16.36-3.39,16.36-10.17,0-2.16-.54-3.93-1.62-5.31-1.08-1.38-2.51-2.51-4.27-3.39-1.77-.88-3.81-1.6-6.12-2.14-2.31-.54-4.74-1.05-7.3-1.55-3.24-.59-6.46-1.3-9.65-2.14-3.19-.83-6.09-2.06-8.7-3.68-2.6-1.62-4.72-3.76-6.34-6.41s-2.43-6.09-2.43-10.32Z"/>
      <path class="st1" d="M697.41,194.71c-6.49,0-12.14-1.13-16.95-3.39-4.82-2.26-8.65-5.6-11.5-10.02v43.48h-12.09v-106.86h12.09v12.09c5.9-9.04,15.38-13.56,28.45-13.56,5.5,0,10.61.98,15.33,2.95,4.72,1.97,8.79,4.69,12.23,8.18,3.44,3.49,6.12,7.64,8.03,12.45,1.92,4.82,2.87,10.02,2.87,15.62s-.96,10.79-2.87,15.55c-1.92,4.77-4.59,8.89-8.03,12.38-3.44,3.49-7.52,6.22-12.23,8.18-4.72,1.96-9.83,2.95-15.33,2.95ZM696.23,128.09c-4.03,0-7.72.66-11.05,1.99-3.34,1.33-6.22,3.22-8.62,5.67-2.41,2.46-4.27,5.38-5.6,8.77-1.33,3.39-1.99,7.1-1.99,11.13s.66,7.71,1.99,11.05c1.33,3.34,3.19,6.24,5.6,8.7,2.41,2.46,5.28,4.35,8.62,5.67,3.34,1.33,7.02,1.99,11.05,1.99s7.54-.69,10.83-2.06c3.29-1.38,6.14-3.29,8.55-5.75,2.41-2.46,4.3-5.35,5.67-8.7,1.38-3.34,2.06-6.98,2.06-10.91s-.69-7.59-2.06-10.98c-1.38-3.39-3.27-6.31-5.67-8.77-2.41-2.45-5.26-4.37-8.55-5.75-3.29-1.38-6.9-2.06-10.83-2.06Z"/>
      <path class="st1" d="M750.91,94.48c0-2.45.83-4.52,2.51-6.19,1.67-1.67,3.73-2.51,6.19-2.51s4.52.84,6.19,2.51c1.67,1.67,2.5,3.74,2.5,6.19s-.84,4.52-2.5,6.19c-1.67,1.67-3.74,2.51-6.19,2.51s-4.52-.83-6.19-2.51c-1.67-1.67-2.51-3.73-2.51-6.19ZM753.57,117.92h12.09v75.46h-12.09v-75.46Z"/>
      <path class="st1" d="M789.24,117.92h12.09v16.66c3.04-6.09,7.17-10.64,12.38-13.63,5.21-3,10.86-4.5,16.95-4.5v12.53c-3.24,0-6.61.61-10.1,1.84-3.49,1.23-6.66,3.05-9.51,5.45-2.85,2.41-5.18,5.38-7,8.92-1.82,3.54-2.73,7.62-2.73,12.23v35.96h-12.09v-75.46Z"/>
      <path class="st1" d="M853.79,159.33c.39,3.54,1.33,6.76,2.8,9.65,1.47,2.9,3.36,5.41,5.67,7.52,2.31,2.11,5.01,3.74,8.11,4.86,3.1,1.13,6.46,1.7,10.1,1.7,4.72,0,8.92-.93,12.6-2.8,3.68-1.87,6.36-4.52,8.03-7.96h14c-2.36,6.98-6.68,12.46-12.97,16.43-6.29,3.98-13.76,5.97-22.4,5.97-5.5,0-10.61-.98-15.33-2.95-4.72-1.96-8.82-4.69-12.31-8.18-3.49-3.49-6.22-7.61-8.18-12.38-1.97-4.76-2.95-9.95-2.95-15.55s.98-10.78,2.95-15.55c1.96-4.76,4.67-8.92,8.11-12.45,3.44-3.54,7.52-6.29,12.23-8.25,4.72-1.96,9.88-2.95,15.48-2.95,5.31,0,10.19.79,14.67,2.36,4.47,1.57,8.35,3.78,11.64,6.63,3.29,2.85,5.94,6.26,7.96,10.24,2.01,3.98,3.22,8.43,3.61,13.34.2,1.57.29,3.05.29,4.42,0,.29-.03.93-.07,1.92-.05.98-.12,2.31-.22,3.98h-63.82ZM904.49,149.02c-.59-6.49-3.1-11.59-7.52-15.33-4.42-3.73-10.17-5.6-17.25-5.6-3.24,0-6.29.49-9.14,1.47-2.85.98-5.38,2.41-7.59,4.27-2.21,1.87-4.08,4.08-5.6,6.63-1.52,2.56-2.58,5.41-3.17,8.55h50.26Z"/>
    </g>
  </g>
  <path class="st0" d="M302.59,259.87c-7.31-8.8-47.89-55.94-116.99-61.08-83.01-6.18-135.76,53.54-141.29,60.02,44.78-68.87,89.55-137.73,134.33-206.6"/>
</svg>